<?xml version="1.0"?>
<svg xmlns:rdf="http://www.w3.org/1999/02/22-rdf-syntax-ns#" xmlns:sodipodi="http://sodipodi.sourceforge.net/DTD/sodipodi-0.dtd" xmlns:inkscape="http://www.inkscape.org/namespaces/inkscape" xmlns:svg="http://www.w3.org/2000/svg" xmlns:cc="http://creativecommons.org/ns#" xmlns:dc="http://purl.org/dc/elements/1.1/" xmlns="http://www.w3.org/2000/svg" xmlns:xlink="http://www.w3.org/1999/xlink" id="svg21" width="91.810417mm" height="22.860001mm" inkscape:version="0.92.5 (2060ec1f9f, 2020-04-08)" sodipodi:docname="stream-logo.svg" version="1.1">
  <metadata id="metadata25">
    <rdf:RDF>
      <cc:Work rdf:about="">
        <dc:format>image/svg+xml</dc:format>
        <dc:type rdf:resource="http://purl.org/dc/dcmitype/StillImage"/>
      </cc:Work>
    </rdf:RDF>
  </metadata>
  <sodipodi:namedview id="namedview23" inkscape:cx="189.535" inkscape:cy="-103.67908" borderopacity="1" inkscape:zoom="2.4976667" guidetolerance="10" inkscape:window-height="1376" inkscape:window-x="0" bordercolor="#666666" inkscape:pageopacity="0" showgrid="false" inkscape:window-y="27" inkscape:window-maximized="1" pagecolor="#ffffff" objecttolerance="10" inkscape:current-layer="svg21" gridtolerance="10" inkscape:pageshadow="2" inkscape:window-width="2560"/>
  <defs id="SvgjsDefs4524">
    <linearGradient id="SvgjsLinearGradient4531">
      <stop id="SvgjsStop4532" stop-color="#7f00ff" offset="0"/>
      <stop id="SvgjsStop4533" stop-color="#e100ff" offset="1"/>
    </linearGradient>
    <linearGradient id="linearGradient832" gradientunits="userSpaceOnUse" xlink:href="#SvgjsLinearGradient4531" x1="5.7307515" y1="7.7326005" x2="91.68506" y2="7.7326005" gradienttransform="scale(1.0052783,0.99474943)" inkscape:collect="always"/>
    <linearGradient id="linearGradient834" gradientunits="userSpaceOnUse" xlink:href="#SvgjsLinearGradient4531" x1="34.465157" y1="25.998248" x2="73.759784" y2="25.998248" gradienttransform="scale(0.9048849,1.1051129)" inkscape:collect="always"/>
    <linearGradient id="linearGradient836" gradientunits="userSpaceOnUse" xlink:href="#SvgjsLinearGradient4531" x1="5.7307515" y1="7.7326005" x2="91.68506" y2="7.7326005" gradienttransform="scale(1.0052783,0.99474943)" inkscape:collect="always"/>
    <linearGradient id="linearGradient838" gradientunits="userSpaceOnUse" xlink:href="#SvgjsLinearGradient4531" x1="5.7307515" y1="7.7326005" x2="91.68506" y2="7.7326005" gradienttransform="scale(1.0052783,0.99474943)" inkscape:collect="always"/>
    <linearGradient id="linearGradient840" gradientunits="userSpaceOnUse" xlink:href="#SvgjsLinearGradient4531" x1="5.7307515" y1="7.7326005" x2="91.68506" y2="7.7326005" gradienttransform="scale(1.0052783,0.99474943)" inkscape:collect="always"/>
  </defs>
  <g id="SvgjsG4525" style="fill:url(#linearGradient840)" transform="matrix(1.0104909,0,0,1.0104909,-5.8214381,-7.772696)" featurekey="symbolFeature-0">
    <g id="g12" style="fill:url(#linearGradient838)">
      <g id="g10" style="fill:url(#linearGradient836)">
        <path id="path6" style="fill:url(#linearGradient832)" d="m 48.931,7.692 c -28.781,0 -43.17,14.251 -43.17,42.752 0,28.501 14.389,42.751 43.17,42.751 28.825,0 43.238,-14.25 43.238,-42.751 0,-28.501 -14.413,-42.752 -43.238,-42.752 z m 25.221,68.769 c -5.288,5.497 -13.694,8.246 -25.221,8.246 -11.436,0 -19.81,-2.748 -25.12,-8.246 -5.31,-5.496 -7.965,-14.169 -7.965,-26.017 0,-11.849 2.655,-20.522 7.965,-26.018 5.31,-5.497 13.684,-8.246 25.12,-8.246 11.527,0 19.933,2.749 25.221,8.246 5.287,5.496 7.931,14.169 7.931,26.018 0,11.848 -2.644,20.521 -7.931,26.017 z" inkscape:connector-curvature="0"/>
        <path id="path8" style="fill:url(#linearGradient834)" d="M 64.771,46.535 43.67,30.258 c -1.66,-1.28 -3.968,-1.754 -6.109,-1.424 -0.299,-0.063 -0.604,-0.103 -0.917,-0.103 -3.014,0 -5.457,3.03 -5.457,6.768 v 29.889 c 0,3.738 2.443,6.768 5.457,6.768 0.313,0 0.618,-0.04 0.917,-0.103 2.141,0.33 4.449,-0.144 6.109,-1.424 L 64.772,54.352 c 1.393,-1.075 2.043,-2.501 1.966,-3.909 0.077,-1.406 -0.573,-2.833 -1.967,-3.908 z" inkscape:connector-curvature="0"/>
      </g>
    </g>
  </g>
  <g id="SvgjsG4526" style="fill:#eafff7" transform="matrix(1.0256921,0,0,1.0256921,104.74793,40.366577)" featurekey="nameFeature-0">
    <path id="path15" d="m 12.38,23.06 c 5.26,0.98 10.8,2.82 10.8,8.96 0,5.98 -3.6,8.58 -10.66,8.58 C 5.94,40.6 2.7,38.36 2.2,32.76 2.16,32.36 2.4,32.1 2.76,32.1 h 4.82 c 0.36,0 0.5,0.22 0.6,0.54 0.52,1.44 1.8,2.14 4.34,2.14 2.68,0 4.34,-0.76 4.34,-2.54 0,-1.86 -0.6,-2.86 -4.48,-3.62 -4.96,-0.98 -9.76,-3.04 -9.76,-8.68 0,-5.16 3.14,-8.28 9.76,-8.28 5.9,0 9.42,2.18 9.96,7.58 0.04,0.4 -0.2,0.72 -0.56,0.72 h -4.46 c -0.36,0 -0.5,-0.28 -0.6,-0.6 -0.38,-1.16 -1.64,-1.94 -4.24,-1.94 -2.38,0 -3.58,1.04 -3.58,2.52 0,1.2 -0.08,2.44 3.48,3.12 z M 49.578,12 c 0.36,0 0.6,0.24 0.6,0.6 v 4.48 c 0,0.36 -0.24,0.6 -0.6,0.6 h -7.24 V 39.4 c 0,0.36 -0.24,0.6 -0.6,0.6 h -5.26 c -0.36,0 -0.6,-0.24 -0.6,-0.6 V 17.68 h -7.24 c -0.36,0 -0.6,-0.24 -0.6,-0.6 V 12.6 c 0,-0.36 0.24,-0.6 0.6,-0.6 z m 30.678,27.32 c 0.14,0.4 -0.04,0.68 -0.48,0.68 h -5.48 c -0.32,0 -0.56,-0.12 -0.68,-0.48 l -1.28,-3.88 h -10.02 l -1.28,3.88 c -0.1,0.36 -0.36,0.48 -0.68,0.48 h -5.48 c -0.44,0 -0.62,-0.28 -0.48,-0.68 l 9.8,-26.84 c 0.12,-0.32 0.36,-0.48 0.68,-0.48 h 4.8 c 0.32,0 0.66,0.16 0.78,0.48 z m -16.12,-9.14 h 6.4 l -3.2,-9.68 z m 36.338,-5.12 c 3.62,0.68 5.68,3.06 5.68,6.88 0,5.42 -2.82,8.06 -10.26,8.06 h -9.82 c -0.36,0 -0.6,-0.24 -0.6,-0.6 V 12.6 c 0,-0.36 0.24,-0.6 0.6,-0.6 h 10.28 c 5.82,0 8.34,3.22 8.34,7.28 0,2.94 -1.5,5.04 -4.22,5.78 z m -1.78,-4.94 c 0,-1.84 -0.84,-2.44 -2.94,-2.44 h -3.82 v 5.08 h 3.74 c 2.24,0 3.02,-0.7 3.02,-2.64 z m -2.54,14.2 c 2.54,0 3.56,-1.04 3.56,-3.1 0,-2.32 -1.18,-3.14 -3.62,-3.14 h -4.16 v 6.24 z m 34.098,0 c 0.36,0 0.6,0.24 0.6,0.6 v 4.48 c 0,0.36 -0.24,0.6 -0.6,0.6 h -17.34 c -0.36,0 -0.6,-0.24 -0.6,-0.6 V 12.6 c 0,-0.36 0.24,-0.6 0.6,-0.6 h 5.26 c 0.36,0 0.6,0.24 0.6,0.6 v 21.72 z m 10.378,6.2 c -2.38,0 -4.32,-1.94 -4.32,-4.32 0,-2.36 1.94,-4.3 4.32,-4.3 2.36,0 4.32,1.94 4.32,4.3 0,2.38 -1.96,4.32 -4.32,4.32 z m 24.798,0 c -7.92,0 -14.42,-6.4 -14.42,-14.4 0,-8.04 6.5,-14.44 14.42,-14.44 7.94,0 14.46,6.4 14.46,14.44 0,8 -6.52,14.4 -14.46,14.4 z m 0,-6.26 c 4.46,0 7.96,-3.58 7.96,-8.14 0,-4.6 -3.5,-8.18 -7.96,-8.18 -4.42,0 -7.92,3.58 -7.92,8.18 0,4.56 3.5,8.14 7.92,8.14 z M 209.286,12 c 0.36,0 0.6,0.24 0.6,0.6 v 26.8 c 0,0.36 -0.24,0.6 -0.6,0.6 h -5.92 c -0.32,0 -0.56,-0.12 -0.72,-0.4 l -9.54,-17.14 V 39.4 c 0,0.36 -0.24,0.6 -0.6,0.6 h -5.26 c -0.36,0 -0.6,-0.24 -0.6,-0.6 V 12.6 c 0,-0.36 0.24,-0.6 0.6,-0.6 h 5.9 c 0.32,0 0.56,0.12 0.72,0.4 l 9.54,17.12 V 12.6 c 0,-0.36 0.24,-0.6 0.6,-0.6 z m 26.298,22.32 c 0.36,0 0.6,0.24 0.6,0.6 v 4.48 c 0,0.36 -0.24,0.6 -0.6,0.6 h -17.54 c -0.36,0 -0.6,-0.24 -0.6,-0.6 V 12.6 c 0,-0.36 0.24,-0.6 0.6,-0.6 h 17.5 c 0.36,0 0.6,0.24 0.6,0.6 v 4.48 c 0,0.36 -0.24,0.6 -0.6,0.6 h -11.64 v 5.38 h 10.66 c 0.36,0 0.6,0.24 0.6,0.6 v 4.48 c 0,0.36 -0.24,0.6 -0.6,0.6 h -10.66 v 5.58 z" inkscape:connector-curvature="0"/>
  </g>
  <g id="SvgjsG4527" style="fill:#8661c1" transform="matrix(1.8314495,0,0,1.8314495,105.3517,-1.9595685)" featurekey="sloganFeature-0">
    <path id="path18" d="M 6.06,20.14 C 4.68,20.14 3.36,19.62 2.5,18.86 1.6,18.08 1.02,17.04 0.9,16.02 l 1.44,-0.4 c 0.16,0.86 0.6,1.58 1.32,2.18 0.7,0.6 1.5,0.9 2.4,0.9 0.84,0 1.62,-0.2 2.24,-0.64 0.62,-0.42 1.02,-1.14 1.02,-2.02 0,-1.02 -0.54,-1.68 -1.22,-2.08 -0.48,-0.28 -0.9,-0.4 -1.38,-0.5 L 4.8,13.08 C 4.4,13 3.98,12.86 3.52,12.66 3.06,12.44 2.66,12.18 2.32,11.84 1.64,11.18 1.3,10.34 1.3,9.32 1.3,8.52 1.52,7.8 1.96,7.18 2.4,6.54 2.96,6.08 3.66,5.74 4.36,5.42 5.1,5.26 5.92,5.26 c 3.14,0 4.52,1.94 4.82,3.5 L 9.34,9.2 C 9.1,8.16 8.16,6.68 5.9,6.68 4.34,6.64 2.82,7.74 2.84,9.26 c 0,1.12 0.7,2.02 2.12,2.3 l 1.84,0.36 c 1.24,0.24 2.2,0.66 2.84,1.28 0.44,0.4 0.76,0.86 0.96,1.34 0.2,0.5 0.3,0.94 0.3,1.34 0.02,2.56 -2.14,4.32 -4.84,4.26 z M 20.1005,6.86 V 20 h -1.52 V 6.86 h -4.88 V 5.42 h 11.28 V 6.86 Z M 39.441,20 h -1.86 l -4.32,-5.9 h -2.96 V 20 h -1.54 V 5.42 h 5.06 c 1.72,0 3.1,0.48 3.9,1.28 0.8,0.8 1.22,1.8 1.22,2.98 0,2.46 -1.84,3.88 -4,4.16 z M 30.301,6.86 v 5.84 h 3.38 c 1.28,0 2.28,-0.36 2.86,-0.94 0.56,-0.56 0.84,-1.26 0.84,-2.04 0,-1.44 -0.88,-2.86 -3.66,-2.86 z M 43.5215,20 V 5.42 h 9.12 v 1.42 h -7.58 v 5.04 h 6.94 v 1.42 h -6.94 v 5.28 h 7.66 V 20 Z m 24.4605,0 -1.6,-3.72 h -7.94 l -1.6,3.72 h -1.56 l 6.28,-14.58 h 1.74 l 6.3,14.58 z m -2.18,-5.12 -3.4,-7.88 -3.38,7.88 z M 86.0625,5.42 h 2.2 V 20 h -1.52 v -12.5 0 l -5.42,12.5 h -1.38 l -5.38,-12.4 v 0 12.4 h -1.52 V 5.42 h 2.18 l 5.44,12.5 z" inkscape:connector-curvature="0"/>
  </g>
</svg>
